<svg width="40" height="25" viewBox="0 0 40 25" fill="none" xmlns="http://www.w3.org/2000/svg">
<path d="M15.917 11.1673C15.917 11.1673 19.6485 10.8894 19.6485 6.5135C19.6485 2.13677 16.5957 0 12.7278 0H5.60783H5.39908H0V24.4594H5.39908H5.60783H12.7278C12.7278 24.4594 20.497 24.7046 20.497 17.2394C20.4962 17.2394 20.8359 11.1673 15.917 11.1673ZM5.60783 4.34736H11.811H12.727C12.727 4.34736 14.4573 4.34736 14.4573 6.89133C14.4573 9.43688 13.439 9.80597 12.2856 9.80597H5.60704V4.34736H5.60783ZM12.3674 20.112C12.1793 20.1168 12.0197 20.112 11.9126 20.112H5.60783V13.5763H12.7278C12.7278 13.5763 15.3067 13.5422 15.3067 16.9338C15.3059 19.7961 13.3802 20.0906 12.3674 20.112Z" fill="#FFBA08"/>
<path d="M30.8604 6.22314C21.4545 6.22314 21.4624 15.6211 21.4624 15.6211C21.4624 15.6211 20.8179 24.9707 30.8604 24.9707C30.8604 24.9707 39.2305 25.4485 39.2305 18.4659H34.9252C34.9252 18.4659 35.0681 21.0964 31.0033 21.0964C31.0033 21.0964 26.6996 21.3829 26.6996 16.8395H39.3734C39.3726 16.8395 40.7601 6.22314 30.8604 6.22314ZM26.6512 13.5764C26.6512 13.5764 27.1766 9.80613 30.9549 9.80613C34.7347 9.80613 34.6847 13.5764 34.6847 13.5764H26.6512Z" fill="#FFBA08"/>
<path d="M35.688 1.44043H25.5986V4.45271H35.688V1.44043Z" fill="#FFBA08"/>
</svg>
