<svg width="38" height="27" viewBox="0 0 38 27" fill="none" xmlns="http://www.w3.org/2000/svg">
<path d="M37.6844 3.22553L27.8501 13.2374C27.8328 13.254 27.8191 13.2739 27.8097 13.296C27.8003 13.318 27.7954 13.3417 27.7954 13.3657C27.7954 13.3896 27.8003 13.4133 27.8097 13.4354C27.8191 13.4574 27.8328 13.4773 27.8501 13.4939L34.7502 20.836C34.9153 21.0024 35.0275 21.2139 35.0729 21.444C35.1183 21.674 35.0947 21.9123 35.0052 22.1291C34.9157 22.3458 34.7643 22.5312 34.5698 22.662C34.3754 22.7929 34.1467 22.8634 33.9123 22.8647C33.597 22.864 33.2947 22.7387 33.0712 22.5161L26.2072 15.2004C26.1722 15.1658 26.125 15.1465 26.0758 15.1465C26.0266 15.1465 25.9794 15.1658 25.9444 15.2004L24.2719 16.8904C23.5871 17.5911 22.7693 18.1479 21.8665 18.5279C20.9637 18.9079 19.9941 19.1035 19.0147 19.1032C18.0167 19.0986 17.0297 18.895 16.1112 18.5043C15.1928 18.1137 14.3614 17.5438 13.6655 16.8279L12.0587 15.1839C12.0237 15.1494 11.9765 15.13 11.9273 15.13C11.8781 15.13 11.8309 15.1494 11.7959 15.1839L4.94836 22.4833C4.83818 22.5937 4.70732 22.6813 4.56327 22.7411C4.41921 22.8009 4.2648 22.8317 4.10885 22.8317C3.95289 22.8317 3.79848 22.8009 3.65443 22.7411C3.51037 22.6813 3.37951 22.5937 3.26934 22.4833C3.15857 22.3732 3.07065 22.2423 3.01065 22.0982C2.95066 21.954 2.91978 21.7994 2.91978 21.6432C2.91978 21.487 2.95066 21.3324 3.01065 21.1882C3.07065 21.044 3.15857 20.9131 3.26934 20.8031L10.1431 13.4775C10.1737 13.4417 10.1905 13.3962 10.1905 13.3492C10.1905 13.3022 10.1737 13.2567 10.1431 13.221L0.308864 3.20909C0.283588 3.18365 0.251321 3.16632 0.216171 3.15928C0.18102 3.15224 0.144576 3.15581 0.111465 3.16956C0.0783549 3.1833 0.0500714 3.20659 0.0302239 3.23646C0.0103763 3.26633 -0.000141303 3.30146 1.43378e-06 3.33733V23.371C0.00259992 24.1455 0.311183 24.8874 0.858422 25.435C1.40566 25.9826 2.14714 26.2914 2.92105 26.294H35.0788C35.8527 26.2914 36.5942 25.9826 37.1414 25.435C37.6886 24.8874 37.9972 24.1455 37.9998 23.371V3.35376C38.0015 3.31648 37.9915 3.27959 37.9714 3.24818C37.9512 3.21678 37.9219 3.19237 37.8873 3.17833C37.8527 3.16428 37.8147 3.16129 37.7784 3.16974C37.742 3.17819 37.7092 3.19767 37.6844 3.22553Z" fill="#FFBA08"/>
<path d="M19.0055 16.726C19.6721 16.7325 20.3333 16.6049 20.9496 16.3507C21.566 16.0966 22.1251 15.721 22.5935 15.2464L36.9162 0.657597C36.4078 0.236146 35.7692 0.00379293 35.109 0H2.92826C2.26777 0.00215458 1.6287 0.234702 1.12109 0.657597L15.447 15.2464C15.9113 15.7183 16.4655 16.0924 17.0766 16.3465C17.6878 16.6006 18.3437 16.7297 19.0055 16.726Z" fill="#FFBA08"/>
</svg>
