<svg width="44" height="36" viewBox="0 0 44 36" fill="none" xmlns="http://www.w3.org/2000/svg">
<path d="M43.6721 17.546C43.6812 17.5471 43.6913 17.5481 43.7003 17.5481C43.7708 17.5481 43.8353 17.4967 43.8484 17.4242C43.8634 17.3425 43.809 17.2639 43.7275 17.2479C41.6657 16.8682 40.1571 16.4481 35.0674 16.4905C35.3847 15.317 35.5559 13.929 35.5901 12.2851C35.5821 7.82798 33.4487 6.25168 33.0388 5.51129C33.6431 2.13701 32.9381 0.60094 32.6107 0.0741076C31.402 -0.356029 28.4054 1.18013 26.7686 2.26288C24.0994 1.48226 18.4587 1.55773 16.3435 2.4643C12.4404 -0.330873 10.3754 0.0972128 10.3754 0.0972128C10.3754 0.0972128 9.0408 2.48946 10.0229 5.98969C8.73867 7.62647 7.78179 8.78485 7.78179 11.8549C7.78179 13.5844 7.98526 15.1325 8.44456 16.4842C6.40182 16.4792 2.12035 16.7542 0.114891 17.2498C0.0343407 17.2699 -0.0149876 17.3525 0.00410186 17.4331C0.0212288 17.5016 0.0836655 17.5479 0.151192 17.5479C0.163234 17.5479 0.175369 17.5468 0.187412 17.5439C2.21107 17.0433 6.63553 16.7713 8.5533 16.7874C8.66311 17.0786 8.78603 17.3606 8.92198 17.6335C3.99147 17.7645 2.66226 18.4685 0.592306 18.9853C0.442267 19.0236 0.295171 19.0599 0.152179 19.0951C0.0716287 19.1152 0.0212233 19.1978 0.0413831 19.2783C0.0585101 19.3468 0.119883 19.3931 0.18848 19.3931C0.200523 19.3931 0.212657 19.3922 0.2247 19.3891C0.367692 19.3529 0.514786 19.3166 0.665896 19.2783C2.74191 18.7596 4.08924 18.0514 9.07915 17.9316C10.5456 20.5948 13.3741 22.2517 18.1444 22.7101C17.4635 23.2267 16.6456 24.2078 16.5329 25.342C15.6767 25.896 13.9552 26.0783 12.6166 25.6563C10.7411 25.064 10.0229 21.3503 7.21472 21.8791C6.60627 21.9939 6.72714 22.3949 7.2529 22.7353C8.10907 23.2892 8.91493 23.9823 9.5364 25.4579C10.0138 26.591 11.0171 28.6156 14.1899 28.6156C15.449 28.6156 16.3313 28.4645 16.3313 28.4645C16.3313 28.4645 16.3558 31.3565 16.3558 32.4806C16.3558 33.7769 14.6062 34.1426 14.6062 34.7661C14.6062 35.0128 15.1854 35.036 15.6507 35.036C16.5703 35.036 18.4842 34.2684 18.4842 32.9207C18.4842 31.85 18.5013 28.2501 18.5013 27.6205C18.5013 26.2436 19.2396 25.8074 19.2396 25.8074C19.2396 25.8074 19.3313 33.1574 19.0634 34.1425C18.7491 35.3008 18.182 35.1366 18.182 35.6534C18.182 36.422 20.4856 35.8418 21.2491 34.1546C21.8394 32.8411 21.5815 25.6312 21.5815 25.6312L22.211 25.6181C22.211 25.6181 22.2463 28.9189 22.2251 30.4278C22.2029 31.99 22.0971 33.9663 23.0248 34.898C23.6342 35.5104 25.6104 36.5852 25.6104 35.6031C25.6104 35.0319 24.5276 34.5626 24.5276 33.0174C24.5276 31.3363 24.5276 26.3786 24.5276 25.9082C25.3918 25.9082 25.2619 28.2461 25.2619 28.2461L25.3253 32.5894C25.3253 32.5894 25.135 34.1717 27.0367 34.8345C27.7076 35.0692 29.1438 35.1327 29.2113 34.7389C29.2788 34.3441 27.4819 33.7568 27.4657 32.5309C27.4557 31.7836 27.499 31.3474 27.499 28.099C27.499 24.8507 27.0628 23.65 25.5429 22.6931C30.2337 22.2106 33.1366 21.0502 34.5518 17.9418C36.1775 17.9952 39.5817 18.1614 43.5382 19.3711C43.5523 19.3762 43.5675 19.3781 43.5825 19.3781C43.647 19.3781 43.7064 19.3359 43.7266 19.2714C43.7507 19.1908 43.7064 19.1062 43.6259 19.082C39.7237 17.8884 36.4233 17.702 34.6808 17.6436C34.7905 17.3737 34.8913 17.0906 34.981 16.7935C40.0997 16.7463 41.6123 17.1653 43.6721 17.546ZM8.13414 22.4875C7.94636 22.4875 7.79418 22.386 7.79418 22.2608C7.79418 22.1357 7.94636 22.0342 8.13414 22.0342C8.32182 22.0342 8.47409 22.1358 8.47409 22.2608C8.47409 22.386 8.32182 22.4875 8.13414 22.4875ZM8.85177 22.8359C8.85177 22.7108 9.00395 22.6092 9.19164 22.6092C9.37941 22.6092 9.53159 22.7108 9.53159 22.8359C9.53159 22.9611 9.37941 23.0625 9.19164 23.0625C9.00395 23.0625 8.85177 22.9611 8.85177 22.8359ZM9.49805 23.604C9.49805 23.4788 9.65032 23.3773 9.838 23.3773C10.0257 23.3773 10.178 23.4788 10.178 23.604C10.178 23.7291 10.0257 23.8305 9.838 23.8305C9.65032 23.8305 9.49805 23.7291 9.49805 23.604ZM10.4046 24.6994C10.2168 24.6994 10.0646 24.5978 10.0646 24.4727C10.0646 24.3475 10.2168 24.246 10.4046 24.246C10.5923 24.246 10.7446 24.3475 10.7446 24.4727C10.7446 24.5978 10.5924 24.6994 10.4046 24.6994ZM11.051 25.5177C10.8632 25.5177 10.711 25.4163 10.711 25.2911C10.711 25.166 10.8632 25.0645 11.051 25.0645C11.2387 25.0645 11.3908 25.166 11.3908 25.2911C11.3908 25.4163 11.2387 25.5177 11.051 25.5177ZM11.9238 26.2145C11.7361 26.2145 11.584 26.113 11.584 25.9878C11.584 25.8627 11.7361 25.7612 11.9238 25.7612C12.1116 25.7612 12.2638 25.8627 12.2638 25.9878C12.2638 26.113 12.1116 26.2145 11.9238 26.2145ZM13.1452 26.6677C12.9574 26.6677 12.8052 26.5662 12.8052 26.441C12.8052 26.3159 12.9574 26.2145 13.1452 26.2145C13.3329 26.2145 13.4852 26.316 13.4852 26.441C13.4852 26.5662 13.333 26.6677 13.1452 26.6677ZM14.3707 26.6677C14.1829 26.6677 14.0307 26.5662 14.0307 26.441C14.0307 26.3159 14.1829 26.2145 14.3707 26.2145C14.5583 26.2145 14.7105 26.316 14.7105 26.441C14.7106 26.5662 14.5584 26.6677 14.3707 26.6677ZM15.6004 26.4746C15.4127 26.4746 15.2605 26.3732 15.2605 26.248C15.2605 26.1229 15.4127 26.0214 15.6004 26.0214C15.7882 26.0214 15.9405 26.1229 15.9405 26.248C15.9405 26.3732 15.7882 26.4746 15.6004 26.4746ZM25.2288 21.6501C24.2149 21.6838 23.1634 21.7008 22.1043 21.7008C21.0347 21.7008 20.0022 21.6834 19.0359 21.6489C13.8824 21.4682 11.0439 19.2931 11.0439 15.5248C11.0439 15.1335 11.1267 13.7579 12.193 12.4796C13.2292 11.2373 14.817 10.5803 16.7849 10.5803C16.919 10.5803 17.159 10.5951 17.6458 10.6253C18.6892 10.6902 20.4357 10.7988 22.1651 10.7988C23.731 10.7988 25.3149 10.6832 26.1658 10.6209C26.5641 10.5917 26.724 10.5803 26.8269 10.5803C31.0131 10.5803 32.5045 13.2551 32.5045 15.758C32.5046 18.3372 31.2423 21.4532 25.2288 21.6501Z" fill="#FFBA08"/>
<path d="M7.11036 24.9091C7.92148 24.9091 7.1241 23.651 7.11027 23.0625C7.10661 23.6353 6.29924 24.9091 7.11036 24.9091Z" fill="#FFBA08"/>
<path d="M22.9065 19.4951C22.823 19.4951 22.7554 19.5628 22.7554 19.6462C22.7554 19.9791 22.3641 20.3513 21.8405 20.3513C21.765 20.3513 21.6923 20.343 21.6228 20.328C21.4489 20.2906 21.2954 20.212 21.1698 20.1196C21.1446 20.1012 21.1206 20.0821 21.0978 20.0627C21.0293 20.0046 20.9715 19.9435 20.9259 19.8853C20.85 19.7883 20.8081 19.6995 20.8081 19.6462C20.8081 19.5628 20.7405 19.4951 20.657 19.4951C20.5735 19.4951 20.5059 19.5628 20.5059 19.6462C20.5059 19.6893 20.5147 19.7374 20.5316 19.7885C20.557 19.8651 20.6006 19.9487 20.6601 20.0327C20.7196 20.1166 20.7951 20.2009 20.884 20.2792C20.9729 20.3574 21.0755 20.4296 21.1892 20.4894C21.3314 20.5639 21.4911 20.619 21.6637 20.6419C21.7212 20.6495 21.7802 20.6536 21.8404 20.6536C22.1542 20.6536 22.4264 20.5519 22.6333 20.3978C22.6629 20.3757 22.6911 20.3526 22.7179 20.3286C22.7715 20.2806 22.8196 20.2288 22.8615 20.1744C22.9662 20.0384 23.0325 19.8865 23.0517 19.7361C23.0555 19.7061 23.0575 19.6761 23.0575 19.6463C23.0576 19.5627 22.9899 19.4951 22.9065 19.4951Z" fill="#FFBA08"/>
<path d="M21.3924 18.6866C21.4298 18.742 21.4776 18.7898 21.533 18.8271C21.5537 18.8412 21.5756 18.8537 21.5983 18.8647C21.6438 18.8866 21.693 18.9022 21.7447 18.91C21.7706 18.9139 21.7971 18.916 21.824 18.916C21.9318 18.916 22.032 18.8833 22.115 18.8271C22.1496 18.8037 22.1813 18.7763 22.2093 18.7454C22.2483 18.7025 22.2769 18.6513 22.2999 18.5971C22.3264 18.5347 22.3444 18.4677 22.3444 18.3955C22.3444 18.1081 22.1114 17.875 21.824 17.875C21.6803 17.875 21.5503 17.9332 21.4561 18.0275C21.452 18.0316 21.4489 18.0367 21.4449 18.041C21.4182 18.0696 21.3954 18.1016 21.3756 18.1356C21.3479 18.1835 21.3257 18.2348 21.3142 18.2907C21.3073 18.3246 21.3037 18.3596 21.3037 18.3956C21.3037 18.4315 21.3074 18.4666 21.3142 18.5005C21.328 18.5683 21.355 18.6312 21.3924 18.6866Z" fill="#FFBA08"/>
<path d="M17.5393 13.2291C17.4327 13.098 17.3176 12.982 17.1953 12.8831C17.073 12.7841 16.9436 12.7022 16.8085 12.6396C16.6734 12.5771 16.5326 12.5337 16.3876 12.5117C16.315 12.5007 16.2414 12.4951 16.167 12.4951C14.9756 12.4951 14.0098 13.9344 14.0098 15.7099C14.0098 17.4854 14.9756 18.7233 16.167 18.7233C16.2414 18.7233 16.315 18.7184 16.3876 18.7089C16.5326 18.6899 16.6734 18.6523 16.8085 18.5973C16.9436 18.5424 17.073 18.4702 17.1953 18.382C17.3175 18.2938 17.4327 18.1897 17.5393 18.0711C17.6458 17.9525 17.7437 17.8193 17.8317 17.6729C18.1394 17.1606 18.3242 16.4867 18.3242 15.7099C18.3242 14.9331 18.1394 14.2207 17.8317 13.6649C17.7438 13.5061 17.6458 13.3601 17.5393 13.2291Z" fill="#FFBA08"/>
<path d="M27.8261 12.4946C26.6347 12.4946 25.6689 13.9339 25.6689 15.7094C25.6689 17.4849 26.6347 18.7228 27.8261 18.7228C29.0176 18.7228 29.9833 17.4849 29.9833 15.7094C29.9833 13.9339 29.0176 12.4946 27.8261 12.4946Z" fill="#FFBA08"/>
</svg>
