<svg width="639" height="673" viewBox="0 0 639 673" fill="none" xmlns="http://www.w3.org/2000/svg">
<path d="M319.25 672.617C495.567 672.617 638.5 665.308 638.5 656.292C638.5 647.276 495.567 639.966 319.25 639.966C142.933 639.966 0 647.276 0 656.292C0 665.308 142.933 672.617 319.25 672.617Z" fill="#E6E6E6"/>
<path d="M589.172 417.748V421.7C589.172 421.7 596.284 446.988 587.591 446.988C578.898 446.988 575.737 422.49 575.737 422.49V417.748H589.172Z" fill="#FFB8B8"/>
<path d="M431.119 327.658L432.7 321.336C432.7 321.336 441.393 301.58 448.505 305.531C455.617 309.482 445.344 324.497 445.344 324.497L443.763 328.448L431.119 327.658Z" fill="#FFB8B8"/>
<path d="M481.697 610.573L483.278 624.007L498.293 626.377V608.992L481.697 610.573Z" fill="#FFB8B8"/>
<path d="M564.674 606.621L566.254 626.377L583.64 624.007L580.478 605.04L564.674 606.621Z" fill="#FFB8B8"/>
<path d="M474.585 456.471L471.424 457.261L480.116 541.029V616.104L502.243 612.153L513.307 480.179L547.288 544.981L563.884 610.573L589.963 605.831L568.625 523.643L554.401 445.407L474.585 456.471Z" fill="#2F2E41"/>
<path d="M490.389 619.265C490.389 619.265 483.277 614.524 480.906 617.685C478.535 620.846 468.262 636.651 468.262 636.651C468.262 636.651 442.973 662.73 468.262 661.939C468.262 661.939 484.857 661.939 488.018 652.456C488.018 652.456 488.809 647.715 494.34 647.715C499.872 647.715 506.194 642.183 506.194 639.022C506.194 635.861 500.663 619.9 498.292 622.348C495.921 624.797 490.389 619.265 490.389 619.265Z" fill="#2F2E41"/>
<path d="M575.232 619.265C575.232 619.265 582.344 614.524 584.715 617.685C587.086 620.846 597.359 636.651 597.359 636.651C597.359 636.651 622.648 662.73 597.359 661.939C597.359 661.939 580.764 661.939 577.603 652.456C577.603 652.456 576.813 647.715 571.281 647.715C565.749 647.715 559.427 642.183 559.427 639.022C559.427 635.861 564.959 619.9 567.329 622.348C569.7 624.797 575.232 619.265 575.232 619.265Z" fill="#2F2E41"/>
<path d="M476.559 323.625C488.08 323.625 497.419 314.286 497.419 302.765C497.419 291.244 488.08 281.905 476.559 281.905C465.039 281.905 455.699 291.244 455.699 302.765C455.699 314.286 465.039 323.625 476.559 323.625Z" fill="#FFB8B8"/>
<path d="M474.979 319.361L486.043 332.794L505.799 316.199L491.575 305.136L474.979 319.361Z" fill="#FFB8B8"/>
<path d="M480.906 333.19L481.552 327.342L503.736 314.595L533.874 311.736C534.805 311.647 535.745 311.743 536.639 312.018C537.533 312.293 538.364 312.741 539.084 313.337C539.805 313.933 540.401 314.666 540.839 315.492C541.276 316.319 541.547 317.223 541.635 318.155L552.82 436.715L556.771 446.988C556.771 446.988 487.228 486.501 471.423 457.261L483.276 395.621L458.778 348.995L480.906 333.19Z" fill="#FFBA08"/>
<path d="M534.645 313.433C535.127 313.353 535.6 313.219 536.052 313.032C537.501 312.51 539.08 312.471 540.553 312.919C542.026 313.368 543.315 314.281 544.228 315.521L579.69 364.01L593.124 420.119H574.158L561.513 382.186L540.967 355.317L534.645 313.433Z" fill="#FFBA08"/>
<path d="M465.101 347.415L458.778 348.996L439.812 365.591L446.134 327.658L430.329 324.497L418.08 388.114L426.772 396.806L476.165 376.654L465.101 347.415Z" fill="#FFBA08"/>
<path d="M484.867 302.697C484.867 302.697 476.298 290.114 471.394 294.257C466.489 298.4 452.74 306.527 449.843 300.094C446.946 293.661 458.08 281.876 466.483 279.059C474.886 276.242 489.642 272.498 494.27 284.921C497.056 292.803 497.985 301.222 496.986 309.522L484.867 302.697Z" fill="#2F2E41"/>
<path d="M485.732 305.116C486.909 304.688 487.239 302.624 486.469 300.506C485.699 298.387 484.12 297.017 482.943 297.445C481.767 297.873 481.437 299.937 482.207 302.055C482.977 304.174 484.555 305.544 485.732 305.116Z" fill="#FFB8B8"/>
<path d="M388.179 156.856H384.552V57.503C384.552 49.9516 383.065 42.4741 380.175 35.4975C377.285 28.5209 373.049 22.1818 367.71 16.8422C362.37 11.5025 356.031 7.2669 349.054 4.37711C342.078 1.48732 334.6 -2.38205e-05 327.049 2.86129e-10H116.556C109.004 -1.78653e-05 101.527 1.48733 94.5503 4.37712C87.5737 7.26691 81.2346 11.5025 75.895 16.8422C70.5553 22.1819 66.3197 28.5209 63.4299 35.4975C60.5401 42.4741 59.0527 49.9516 59.0527 57.503V602.563C59.0527 610.114 60.5401 617.591 63.4299 624.568C66.3197 631.545 70.5553 637.884 75.895 643.223C81.2346 648.563 87.5737 652.799 94.5503 655.689C101.527 658.578 109.004 660.066 116.556 660.066H327.049C334.6 660.066 342.078 658.578 349.054 655.689C356.031 652.799 362.37 648.563 367.71 643.223C373.049 637.884 377.285 631.545 380.175 624.568C383.065 617.591 384.552 610.114 384.552 602.563V227.578H388.179V156.856Z" fill="#3F3D56"/>
<path d="M329.37 14.9603H301.893C303.157 18.0581 303.639 21.4192 303.298 24.7474C302.956 28.0755 301.802 31.2687 299.935 34.0455C298.069 36.8223 295.549 39.0976 292.596 40.6709C289.644 42.2442 286.349 43.0672 283.004 43.0675H162.415C159.069 43.0672 155.775 42.2442 152.822 40.6709C149.87 39.0976 147.349 36.8223 145.483 34.0455C143.617 31.2687 142.462 28.0755 142.121 24.7473C141.78 21.4192 142.262 18.0581 143.525 14.9603H117.863C112.223 14.9602 106.639 16.071 101.429 18.229C96.2191 20.3871 91.4851 23.5502 87.4975 27.5378C83.51 31.5254 80.3468 36.2593 78.1887 41.4694C76.0307 46.6794 74.9199 52.2635 74.9199 57.9028V602.163C74.9199 607.802 76.0307 613.386 78.1887 618.596C80.3468 623.806 83.51 628.54 87.4975 632.528C91.4851 636.515 96.2191 639.678 101.429 641.836C106.639 643.995 112.223 645.105 117.863 645.105H329.37C335.009 645.105 340.593 643.995 345.803 641.836C351.013 639.678 355.747 636.515 359.734 632.528C363.722 628.54 366.885 623.806 369.043 618.596C371.201 613.386 372.312 607.802 372.312 602.163V57.9028C372.312 52.2635 371.201 46.6794 369.043 41.4694C366.885 36.2594 363.722 31.5254 359.734 27.5378C355.747 23.5503 351.013 20.3871 345.803 18.2291C340.593 16.071 335.009 14.9603 329.37 14.9603Z" fill="#2F2E41"/>
<path d="M253.021 161.171H178.052V168.133H253.021V161.171Z" fill="#4361EE"/>
<path d="M308.717 185.254H178.052V192.216H308.717V185.254Z" fill="#E6E6E6"/>
<path d="M308.589 209.338H178.052V216.3H308.589V209.338Z" fill="#E6E6E6"/>
<path d="M162.516 161.274H106.82V216.97H162.516V161.274Z" fill="#4361EE"/>
<path d="M253.021 307.372H178.052V314.334H253.021V307.372Z" fill="#4361EE"/>
<path d="M308.717 331.456H178.052V338.418H308.717V331.456Z" fill="#E6E6E6"/>
<path d="M308.589 355.54H178.052V362.502H308.589V355.54Z" fill="#E6E6E6"/>
<path d="M162.516 307.476H106.82V363.171H162.516V307.476Z" fill="#4361EE"/>
<path d="M253.021 453.574H178.052V460.536H253.021V453.574Z" fill="#4361EE"/>
<path d="M308.717 477.657H178.052V484.619H308.717V477.657Z" fill="#E6E6E6"/>
<path d="M308.589 501.741H178.052V508.703H308.589V501.741Z" fill="#E6E6E6"/>
<path d="M162.516 453.677H106.82V509.373H162.516V453.677Z" fill="#4361EE"/>
</svg>
