<svg width="33" height="33" viewBox="0 0 33 33" fill="none" xmlns="http://www.w3.org/2000/svg">
<path d="M17.633 14.8849V14.8335C17.6223 14.8509 17.611 14.8682 17.5996 14.8849H17.633Z" fill="#FFBA08"/>
<path d="M30.368 0H2.42235C1.08478 0 0 1.05891 0 2.36397V30.6367C0 31.9411 1.08478 33 2.42235 33H30.368C31.7075 33 32.7923 31.9404 32.7923 30.6367V2.36397C32.7923 1.05825 31.7069 0 30.368 0ZM9.93954 27.6252H4.98669V12.7242H9.93954V27.6252ZM7.46345 10.6886H7.43027C5.76893 10.6886 4.6941 9.54411 4.6941 8.11432C4.6941 6.65268 5.8021 5.54003 7.49596 5.54003C9.19048 5.54003 10.2328 6.65268 10.266 8.11432C10.266 9.54411 9.18982 10.6886 7.46345 10.6886ZM27.7997 27.6252H22.8468V19.6515C22.8468 17.6491 22.1303 16.2824 20.3382 16.2824C18.9701 16.2824 18.1554 17.2039 17.7964 18.0943C17.6657 18.4121 17.6339 18.8567 17.6339 19.3025V27.6245H12.681C12.681 27.6245 12.7461 14.1201 12.681 12.7235H17.6339V14.8327C18.2921 13.8176 19.4691 12.3718 22.0984 12.3718C25.3568 12.3718 27.8003 14.5023 27.8003 19.0796V27.6252H27.7997Z" fill="#FFBA08"/>
</svg>
